<?xml version="1.0" standalone="no"?>
<!DOCTYPE svg PUBLIC "-//W3C//DTD SVG 20010904//EN"
 "http://www.w3.org/TR/2001/REC-SVG-20010904/DTD/svg10.dtd">
<svg version="1.0" xmlns="http://www.w3.org/2000/svg"
 width="501.000000pt" height="502.000000pt" viewBox="0 0 501.000000 502.000000"
 preserveAspectRatio="xMidYMid meet">

<g transform="translate(0.000000,502.000000) scale(0.100000,-0.100000)"
fill="#000000" stroke="none">
<path d="M2265 5009 c-337 -33 -690 -143 -978 -306 -621 -351 -1069 -949
-1222 -1629 -51 -225 -59 -304 -59 -564 0 -260 8 -339 59 -564 186 -831 809
-1526 1620 -1807 1079 -373 2269 28 2903 979 562 842 562 1942 0 2784 -512
769 -1406 1194 -2323 1107z m252 -1667 c56 -40 63 -71 63 -266 l0 -176 44 0
c76 0 214 -29 301 -64 365 -145 595 -482 595 -873 0 -115 -14 -190 -51 -269
l-22 -46 -46 89 c-63 122 -124 205 -218 294 -151 144 -323 223 -535 244 l-68
7 0 -177 c0 -196 -7 -227 -63 -267 -41 -29 -114 -35 -157 -13 -19 10 -249 161
-512 336 -419 280 -480 324 -498 358 -25 51 -25 91 0 141 18 35 79 79 488 352
257 171 485 322 507 335 50 30 126 28 172 -5z"/>
<path d="M2350 3181 c-14 -5 -200 -123 -413 -264 -337 -223 -390 -262 -403
-292 -20 -49 -4 -106 39 -138 53 -40 737 -458 773 -473 18 -8 45 -14 59 -14
l25 0 0 217 0 216 108 -6 c419 -24 723 -196 868 -492 l44 -90 -6 55 c-19 187
-49 297 -110 408 -99 177 -265 304 -492 376 -94 30 -242 56 -317 56 -103 0
-95 -18 -95 231 l0 219 -27 -1 c-16 0 -39 -4 -53 -8z"/>
</g>
</svg>
