<?xml version="1.0" standalone="no"?>
<!DOCTYPE svg PUBLIC "-//W3C//DTD SVG 20010904//EN"
 "http://www.w3.org/TR/2001/REC-SVG-20010904/DTD/svg10.dtd">
<svg version="1.0" xmlns="http://www.w3.org/2000/svg"
 width="502.000000pt" height="502.000000pt" viewBox="0 0 502.000000 502.000000"
 preserveAspectRatio="xMidYMid meet">

<g transform="translate(0.000000,502.000000) scale(0.100000,-0.100000)"
fill="#000000" stroke="none">
<path d="M2318 5010 c-346 -29 -688 -128 -978 -282 -605 -321 -1048 -866
-1239 -1523 -114 -391 -126 -846 -35 -1250 191 -847 817 -1543 1633 -1816 545
-182 1101 -180 1638 5 566 194 1044 592 1353 1126 72 124 139 275 191 429 184
553 181 1099 -11 1656 -213 616 -690 1141 -1299 1428 -127 60 -358 138 -506
171 -226 51 -530 74 -747 56z m-483 -1331 c26 -12 149 -128 354 -334 l315
-316 320 320 c177 175 336 327 355 336 45 22 138 22 182 0 52 -27 364 -344
383 -389 20 -49 20 -116 1 -164 -11 -25 -121 -143 -337 -359 -177 -177 -320
-324 -318 -327 3 -3 147 -148 322 -323 334 -336 348 -354 348 -442 -1 -77 -27
-116 -206 -293 -176 -174 -210 -198 -284 -198 -80 0 -102 18 -440 355 l-325
325 -320 -321 c-208 -209 -334 -328 -360 -340 -51 -24 -119 -24 -170 0 -48 23
-379 353 -394 394 -16 42 -13 133 5 170 9 18 161 177 337 354 l322 323 -327
327 c-180 181 -332 341 -337 356 -16 42 -13 134 5 170 20 40 328 352 369 374
64 35 129 35 200 2z"/>
</g>
</svg>
