<?xml version="1.0" standalone="no"?>
<!DOCTYPE svg PUBLIC "-//W3C//DTD SVG 20010904//EN"
 "http://www.w3.org/TR/2001/REC-SVG-20010904/DTD/svg10.dtd">
<svg version="1.0" xmlns="http://www.w3.org/2000/svg"
 width="496.000000pt" height="465.000000pt" viewBox="0 0 496.000000 465.000000"
 preserveAspectRatio="xMidYMid meet">

<g transform="translate(0.000000,465.000000) scale(0.100000,-0.100000)"
fill="#000000" stroke="none">
<path d="M110 4631 c-47 -24 -80 -75 -80 -121 0 -21 7 -71 15 -111 8 -41 32
-168 54 -284 204 -1066 193 -1018 260 -1062 26 -18 48 -23 96 -23 74 0 92 11
236 148 54 51 102 92 109 92 10 0 153 -131 585 -539 150 -141 191 -161 270
-127 41 17 517 462 544 507 24 41 27 76 10 113 -7 14 -171 174 -365 356 -195
182 -354 334 -354 339 0 4 50 54 111 111 62 58 120 118 130 135 43 70 11 176
-65 214 -26 14 -142 39 -326 71 -570 99 -868 151 -1002 175 -165 30 -183 30
-228 6z"/>
<path d="M4610 4624 c-243 -44 -629 -112 -955 -168 -213 -37 -334 -63 -361
-76 -76 -39 -108 -145 -65 -215 10 -17 68 -77 130 -135 61 -57 111 -107 111
-111 0 -5 -248 -240 -662 -628 -26 -24 -52 -59 -59 -78 -21 -64 -6 -93 94
-190 213 -208 432 -406 463 -419 80 -33 118 -15 269 127 67 63 225 212 353
332 l232 218 115 -108 c134 -127 161 -143 233 -143 100 0 150 49 176 170 19
88 104 526 140 720 14 74 44 229 66 345 22 115 40 226 40 245 0 48 -31 95 -79
120 -49 25 -71 24 -241 -6z"/>
<path d="M1564 2060 c-48 -11 -32 2 -439 -380 -95 -89 -173 -162 -267 -250
l-58 -53 -105 99 c-149 139 -165 149 -240 149 -75 0 -126 -29 -154 -90 -11
-22 -51 -209 -90 -415 -40 -206 -97 -503 -127 -660 -64 -328 -65 -354 -11
-408 54 -54 90 -53 432 7 160 29 403 72 540 96 675 119 639 109 682 175 27 38
30 103 9 153 -7 18 -35 52 -62 76 -105 95 -185 174 -182 182 2 4 158 153 348
330 190 177 353 335 363 353 21 37 22 78 3 114 -8 15 -70 79 -137 143 -407
382 -393 370 -449 381 -14 3 -39 2 -56 -2z"/>
<path d="M3317 2055 c-21 -7 -61 -35 -90 -61 -293 -271 -467 -440 -477 -465
-15 -36 -7 -92 17 -122 10 -12 92 -92 183 -176 91 -85 228 -214 305 -286 77
-72 158 -148 180 -168 l40 -37 -122 -118 c-67 -65 -127 -130 -132 -146 -26
-66 -7 -144 45 -185 36 -28 56 -33 389 -91 503 -88 674 -118 885 -155 251 -45
295 -44 347 7 55 55 54 74 -27 493 -39 204 -96 501 -126 660 -31 160 -65 308
-75 330 -36 77 -140 116 -221 82 -20 -8 -89 -64 -153 -124 -65 -59 -121 -108
-125 -108 -8 0 -163 141 -481 441 -124 116 -233 215 -244 221 -36 18 -79 22
-118 8z"/>
</g>
</svg>
