<?xml version="1.0" standalone="no"?>
<!DOCTYPE svg PUBLIC "-//W3C//DTD SVG 20010904//EN"
 "http://www.w3.org/TR/2001/REC-SVG-20010904/DTD/svg10.dtd">
<svg version="1.0" xmlns="http://www.w3.org/2000/svg"
 width="502.000000pt" height="501.000000pt" viewBox="0 0 502.000000 501.000000"
 preserveAspectRatio="xMidYMid meet">

<g transform="translate(0.000000,501.000000) scale(0.100000,-0.100000)"
fill="#000000" stroke="none">
<path d="M2270 4999 c-1055 -101 -1938 -859 -2194 -1884 -257 -1029 158 -2105
1039 -2692 686 -458 1546 -549 2315 -246 724 286 1275 898 1489 1653 67 237
86 387 86 675 0 288 -19 438 -86 675 -239 843 -889 1495 -1729 1734 -290 82
-624 113 -920 85z m777 -1910 c565 -376 585 -390 610 -428 29 -44 30 -101 1
-152 -18 -33 -98 -89 -507 -361 -267 -177 -503 -328 -524 -335 -46 -16 -99 -5
-142 29 -48 37 -55 71 -55 259 l0 172 -82 -6 c-206 -15 -426 -126 -569 -285
-63 -71 -150 -201 -185 -275 -14 -32 -29 -55 -34 -52 -4 3 -21 40 -36 82 -27
74 -29 86 -28 233 1 138 4 165 28 244 51 168 131 300 253 417 161 155 350 239
596 265 l57 5 0 172 c0 144 3 178 18 207 26 52 74 80 138 80 53 0 55 -2 461
-271z"/>
<path d="M2580 2961 l0 -221 -42 0 c-205 0 -476 -79 -625 -181 -199 -137 -320
-356 -341 -616 -4 -51 -7 -91 -5 -90 1 1 23 45 49 97 40 81 62 109 143 190
178 176 391 259 733 286 l88 6 2 -218 3 -219 35 4 c46 4 18 -11 457 258 374
229 382 235 398 278 14 36 15 49 5 80 -11 33 -35 52 -234 183 -121 80 -300
197 -396 260 -148 97 -182 116 -222 120 l-48 5 0 -222z"/>
</g>
</svg>
