<?xml version="1.0" standalone="no"?>
<!DOCTYPE svg PUBLIC "-//W3C//DTD SVG 20010904//EN"
 "http://www.w3.org/TR/2001/REC-SVG-20010904/DTD/svg10.dtd">
<svg version="1.0" xmlns="http://www.w3.org/2000/svg"
 width="502.000000pt" height="502.000000pt" viewBox="0 0 502.000000 502.000000"
 preserveAspectRatio="xMidYMid meet">

<g transform="translate(0.000000,502.000000) scale(0.100000,-0.100000)"
fill="#000000" stroke="none">
<path d="M2210 4924 c-407 -56 -778 -207 -1115 -456 -134 -99 -373 -337 -473
-470 -247 -330 -396 -687 -463 -1113 -18 -108 -18 -523 -1 -640 38 -263 109
-490 227 -730 133 -270 248 -430 464 -645 353 -352 777 -572 1276 -661 116
-21 160 -24 400 -24 301 1 391 12 636 79 711 195 1309 734 1580 1424 158 404
204 834 133 1262 -80 486 -316 945 -663 1290 -202 200 -393 337 -645 460 -249
123 -514 201 -778 229 -134 15 -451 12 -578 -5z m645 -363 c972 -162 1693
-1010 1695 -1989 1 -1055 -787 -1926 -1839 -2032 -489 -49 -1002 97 -1406 400
-367 276 -630 669 -745 1114 -46 176 -62 310 -62 506 0 196 16 330 62 506 108
417 345 790 675 1059 317 259 676 408 1090 455 122 14 392 4 530 -19z"/>
<path d="M1932 3664 c-18 -10 -45 -33 -60 -52 l-27 -35 -3 -1004 c-3 -1119 -7
-1045 66 -1101 31 -23 45 -27 106 -27 l71 0 155 101 c85 55 198 128 250 161
52 33 223 142 380 243 157 100 388 248 513 328 140 89 238 158 254 179 50 66
39 180 -23 234 -16 14 -364 238 -1349 867 -171 110 -183 116 -240 119 -42 3
-70 -1 -93 -13z m757 -799 c259 -165 470 -302 470 -305 0 -4 -904 -584 -955
-613 -12 -7 -14 80 -14 613 0 533 2 620 14 613 8 -4 226 -143 485 -308z"/>
</g>
</svg>
