<?xml version="1.0" standalone="no"?>
<!DOCTYPE svg PUBLIC "-//W3C//DTD SVG 20010904//EN"
 "http://www.w3.org/TR/2001/REC-SVG-20010904/DTD/svg10.dtd">
<svg version="1.0" xmlns="http://www.w3.org/2000/svg"
 width="501.000000pt" height="502.000000pt" viewBox="0 0 501.000000 502.000000"
 preserveAspectRatio="xMidYMid meet">

<g transform="translate(0.000000,502.000000) scale(0.100000,-0.100000)"
fill="#000000" stroke="none">
<path d="M2265 5009 c-337 -33 -690 -143 -978 -306 -621 -351 -1069 -949
-1222 -1629 -51 -225 -59 -304 -59 -564 0 -260 8 -339 59 -564 186 -831 809
-1526 1620 -1807 1079 -373 2269 28 2903 979 562 842 562 1942 0 2784 -512
769 -1406 1194 -2323 1107z m555 -484 c591 -98 1089 -429 1415 -940 21 -33 67
-118 101 -189 271 -555 271 -1217 0 -1772 -132 -272 -297 -484 -526 -677 -277
-234 -616 -389 -995 -454 -139 -23 -481 -23 -620 0 -601 103 -1093 430 -1420
942 -21 33 -67 118 -101 189 -271 555 -271 1217 0 1772 71 145 109 208 208
342 324 439 850 738 1409 801 115 13 414 5 529 -14z"/>
<path d="M1570 2510 l0 -940 935 0 935 0 0 940 0 940 -935 0 -935 0 0 -940z"/>
</g>
</svg>
